<svg width="56" height="56" viewBox="0 0 56 56" fill="none" xmlns="http://www.w3.org/2000/svg">
<path d="M13.125 2.625H39.375V53.375H13.125V2.625Z" fill="#D0D8DA"/>
<path d="M18.375 17.5V2.625H13.125V53.375H39.375V29.75H30.625C27.3761 29.75 24.2603 28.4594 21.9629 26.1621C19.6656 23.8647 18.375 20.7489 18.375 17.5Z" fill="#93999A"/>
<path d="M32.375 40.25H35.875V43.75H32.375V40.25Z" fill="#4891D3"/>
<path d="M16.625 32.375H20.125V35.875H16.625V32.375Z" fill="#4891D3"/>
<path d="M24.5 32.375H28V35.875H24.5V32.375Z" fill="#4891D3"/>
<path d="M32.375 32.375H35.875V35.875H32.375V32.375Z" fill="#4891D3"/>
<path d="M16.625 24.5H20.125V28H16.625V24.5Z" fill="#4891D3"/>
<path d="M24.5 24.5H28V28H24.5V24.5Z" fill="#57B7EB"/>
<path d="M32.375 24.5H35.875V28H32.375V24.5Z" fill="#57B7EB"/>
<path d="M16.625 16.625H20.125V20.125H16.625V16.625Z" fill="#57B7EB"/>
<path d="M24.5 16.625H28V20.125H24.5V16.625Z" fill="#57B7EB"/>
<path d="M32.375 16.625H35.875V20.125H32.375V16.625Z" fill="#57B7EB"/>
<path d="M16.625 8.75H20.125V12.25H16.625V8.75Z" fill="#57B7EB"/>
<path d="M24.5 8.75H28V12.25H24.5V8.75Z" fill="#57B7EB"/>
<path d="M32.375 8.75H35.875V12.25H32.375V8.75Z" fill="#57B7EB"/>
<path d="M35.875 43.75H32.375V40.25L35.875 43.75Z" fill="#2D72BC"/>
<path d="M20.125 35.875H16.625V32.375L20.125 35.875Z" fill="#2D72BC"/>
<path d="M28 35.875H24.5V32.375L28 35.875Z" fill="#2D72BC"/>
<path d="M35.875 35.875H32.375V32.375L35.875 35.875Z" fill="#2D72BC"/>
<path d="M20.125 28H16.625V24.5L20.125 28Z" fill="#2D72BC"/>
<path d="M28 28H24.5V24.5L28 28Z" fill="#4891D3"/>
<path d="M35.875 28H32.375V24.5L35.875 28Z" fill="#4891D3"/>
<path d="M20.125 20.125H16.625V16.625L20.125 20.125Z" fill="#4891D3"/>
<path d="M28 20.125H24.5V16.625L28 20.125Z" fill="#4891D3"/>
<path d="M35.875 20.125H32.375V16.625L35.875 20.125Z" fill="#4891D3"/>
<path d="M20.125 12.25H16.625V8.75L20.125 12.25Z" fill="#4891D3"/>
<path d="M28 12.25H24.5V8.75L28 12.25Z" fill="#4891D3"/>
<path d="M35.875 12.25H32.375V8.75L35.875 12.25Z" fill="#4891D3"/>
<path d="M16.625 20.125H18.6637C18.4735 19.2629 18.3767 18.3828 18.375 17.5V16.625H16.625V20.125Z" fill="#4891D3"/>
<path d="M16.625 8.75H18.375V12.25H16.625V8.75Z" fill="#4891D3"/>
<path d="M16.625 8.75V12.25H18.375V10.5L16.625 8.75Z" fill="#2D72BC"/>
<path d="M16.625 16.625V20.125H18.6637C18.5466 19.5652 18.4676 18.998 18.4275 18.4275L16.625 16.625Z" fill="#2D72BC"/>
<path d="M39.375 23.625H53.375V53.375H39.375V23.625Z" fill="#F9E109"/>
<path d="M42 37.625V23.625H39.375V53.375H53.375V47.25H51.625C50.361 47.25 49.1094 47.001 47.9417 46.5173C46.7739 46.0336 45.7129 45.3247 44.8191 44.4309C43.9253 43.5371 43.2164 42.4761 42.7327 41.3083C42.249 40.1406 42 38.889 42 37.625Z" fill="#FCBC04"/>
<path d="M39.375 27.125H44.625V32.375H39.375V27.125Z" fill="#57B7EB"/>
<path d="M48.125 27.125H53.375V32.375H48.125V27.125Z" fill="#57B7EB"/>
<path d="M39.375 35.875H44.625V41.125H39.375V35.875Z" fill="#57B7EB"/>
<path d="M48.125 35.875H53.375V41.125H48.125V35.875Z" fill="#57B7EB"/>
<path d="M39.375 44.625H44.625V49.875H39.375V44.625Z" fill="#4891D3"/>
<path d="M48.125 44.625H53.375V49.875H48.125V44.625Z" fill="#57B7EB"/>
<path d="M49 27.125H48.125V32.375H53.375V31.5L49 27.125Z" fill="#4891D3"/>
<path d="M40.25 27.125H39.375V32.375H44.625V31.5L40.25 27.125Z" fill="#4891D3"/>
<path d="M49 35.875H48.125V41.125H53.375V40.25L49 35.875Z" fill="#4891D3"/>
<path d="M40.25 35.875H39.375V41.125H44.625V40.25L40.25 35.875Z" fill="#4891D3"/>
<path d="M49 44.625H48.125V49.875H53.375V49L49 44.625Z" fill="#4891D3"/>
<path d="M40.25 44.625H39.375V49.875H44.625V49L40.25 44.625Z" fill="#2D72BC"/>
<path d="M39.375 27.125H42V32.375H39.375V27.125Z" fill="#4891D3"/>
<path d="M42 37.625V35.875H39.375V41.125H42.6659C42.2272 40.0102 42.0014 38.823 42 37.625Z" fill="#4891D3"/>
<path d="M48.125 46.5841V49.875H53.375V47.25H51.625C50.427 47.2486 49.2398 47.0228 48.125 46.5841Z" fill="#4891D3"/>
<path d="M40.25 27.125H39.375V32.375H42V28.875L40.25 27.125Z" fill="#2D72BC"/>
<path d="M40.25 35.875H39.375V41.125H42.6659C42.2272 40.0102 42.0014 38.823 42 37.625L40.25 35.875Z" fill="#2D72BC"/>
<path d="M48.125 46.5841V49.875H53.375V49L51.625 47.25C50.427 47.2486 49.2398 47.0228 48.125 46.5841Z" fill="#2D72BC"/>
<path d="M2.625 35.875H32.375V53.375H2.625V35.875Z" fill="#C4F236"/>
<path d="M6.125 41.125V35.875H2.625V53.375H32.375V49.875H14.875C12.5544 49.875 10.3288 48.9531 8.68782 47.3122C7.04687 45.6712 6.125 43.4456 6.125 41.125Z" fill="#A1D51C"/>
<path d="M9.625 46.375H25.375V53.375H9.625V46.375Z" fill="#57B7EB"/>
<path d="M7 39.375H28V42.875H7V39.375Z" fill="#57B7EB"/>
<path d="M7 39.375H10.5V42.875H7V39.375Z" fill="#57B7EB"/>
<path d="M10.5 39.375H14V42.875H10.5V39.375Z" fill="#57B7EB"/>
<path d="M14 39.375H17.5V42.875H14V39.375Z" fill="#57B7EB"/>
<path d="M17.5 39.375H21V42.875H17.5V39.375Z" fill="#57B7EB"/>
<path d="M21 39.375H24.5V42.875H21V39.375Z" fill="#57B7EB"/>
<path d="M10.5 42.875H7V39.375L10.5 42.875Z" fill="#4891D3"/>
<path d="M14 42.875H10.5V39.375L14 42.875Z" fill="#4891D3"/>
<path d="M17.5 42.875H14V39.375L17.5 42.875Z" fill="#4891D3"/>
<path d="M21 42.875H17.5V39.375L21 42.875Z" fill="#4891D3"/>
<path d="M24.5 42.875H21V39.375L24.5 42.875Z" fill="#4891D3"/>
<path d="M28 42.875H24.5V39.375L28 42.875Z" fill="#4891D3"/>
<path d="M25.375 52.5L19.25 46.375H11.375L18.375 53.375H25.375V52.5Z" fill="#4891D3"/>
<path d="M14.875 49.875C12.9798 49.8752 11.1363 49.2564 9.625 48.1128V53.375H25.375V49.875H14.875Z" fill="#4891D3"/>
<path d="M14.875 49.875L18.375 53.375H25.375V52.5L22.75 49.875H14.875Z" fill="#2D72BC"/>
<path d="M16.625 46.375H18.375V53.375H16.625V46.375Z" fill="#C4F236"/>
<path d="M16.625 49.875H18.375V53.375H16.625V49.875Z" fill="#A1D51C"/>
<path d="M6.125 14.875H13.125V35.875H6.125V14.875Z" fill="#F9E109"/>
<path d="M11.375 14.875V24.5C11.3744 25.9719 10.8432 27.3943 9.879 28.5064C8.91475 29.6185 7.58198 30.3458 6.125 30.555V35.875H13.125V14.875H11.375Z" fill="#FCBC04"/>
<path d="M9.625 18.375H13.125V21.875H9.625V18.375Z" fill="#57B7EB"/>
<path d="M9.625 25.375H13.125V28.875H9.625V25.375Z" fill="#57B7EB"/>
<path d="M9.625 28.7735V28.875H13.125V25.375H11.3067C11.1225 26.6581 10.5333 27.8487 9.625 28.7735Z" fill="#4891D3"/>
<path d="M9.625 32.375H13.125V35.875H9.625V32.375Z" fill="#4891D3"/>
<path d="M13.125 21.875H9.625L13.125 18.375V21.875Z" fill="#4891D3"/>
<path d="M13.125 28.875H9.625L13.125 25.375V28.875Z" fill="#2D72BC"/>
<path d="M13.125 35.875H9.625L13.125 32.375V35.875Z" fill="#2D72BC"/>
<path d="M11.375 18.375H13.125V21.875H11.375V18.375Z" fill="#4891D3"/>
<path d="M11.375 20.125V21.875H13.125V18.375L11.375 20.125Z" fill="#2D72BC"/>
<path d="M51.625 14C51.5716 14 51.5209 14.0114 51.4692 14.0157C51.3457 13.6494 51.1418 13.3153 50.8725 13.038C50.6031 12.7606 50.2752 12.547 49.9126 12.4128C49.5501 12.2786 49.1621 12.2272 48.7771 12.2623C48.3921 12.2974 48.0198 12.4182 47.6875 12.6158C47.2903 12.3792 46.8372 12.2529 46.375 12.25C45.6788 12.25 45.0111 12.5266 44.5188 13.0188C44.0266 13.5111 43.75 14.1788 43.75 14.875C43.75 15.5712 44.0266 16.2389 44.5188 16.7312C45.0111 17.2234 45.6788 17.5 46.375 17.5C46.8371 17.4976 47.2902 17.3719 47.6875 17.136C48.111 17.3873 48.5975 17.5126 49.0897 17.4971C49.582 17.4816 50.0596 17.326 50.4665 17.0485C50.6777 17.2393 50.9323 17.3757 51.2082 17.4459C51.484 17.5161 51.7729 17.5179 52.0496 17.4512C52.3263 17.3846 52.5826 17.2514 52.7962 17.0632C53.0099 16.8751 53.1744 16.6377 53.2755 16.3716C53.3766 16.1055 53.4113 15.8188 53.3765 15.5362C53.3418 15.2537 53.2386 14.9839 53.076 14.7503C52.9134 14.5167 52.6963 14.3262 52.4434 14.1955C52.1906 14.0647 51.9096 13.9976 51.625 14Z" fill="#57B7EB"/>
<path d="M7.00004 6.125C6.45594 6.12602 5.92571 6.29665 5.48313 6.61313C5.04055 6.92962 4.70766 7.37621 4.53079 7.89075C4.47916 7.88638 4.42841 7.875 4.37504 7.875C4.09077 7.87325 3.81035 7.94078 3.55804 8.07174C3.30574 8.2027 3.08913 8.39316 2.92696 8.62664C2.76479 8.86011 2.66193 9.12958 2.6273 9.41174C2.59266 9.69389 2.62728 9.98024 2.72816 10.246C2.82905 10.5118 2.99315 10.749 3.2063 10.9371C3.41944 11.1252 3.67519 11.2585 3.95144 11.3256C4.22769 11.3926 4.51612 11.3914 4.79178 11.3219C5.06744 11.2525 5.32203 11.1169 5.53354 10.927C5.87384 11.1563 6.26315 11.3026 6.67023 11.3542C7.0773 11.4058 7.4908 11.3612 7.87754 11.2241C8.26428 11.0869 8.61349 10.861 8.89713 10.5645C9.18077 10.268 9.39095 9.90914 9.5108 9.5167C9.63065 9.12426 9.65683 8.70919 9.58724 8.3048C9.51765 7.90042 9.35422 7.51797 9.11008 7.18817C8.86594 6.85837 8.54788 6.5904 8.18144 6.40576C7.81499 6.22112 7.41037 6.12496 7.00004 6.125Z" fill="#57B7EB"/>
<path d="M50.75 15.7501C50.288 15.7477 49.8349 15.622 49.4375 15.3861C49.0402 15.622 48.5871 15.7477 48.125 15.7501C47.7145 15.7556 47.3085 15.6635 46.9406 15.4813C46.5726 15.2991 46.2533 15.0321 46.0088 14.7022C45.7644 14.3723 45.6019 13.989 45.5347 13.584C45.4676 13.1789 45.4977 12.7637 45.6225 12.3726C45.2664 12.4766 44.9364 12.6553 44.6546 12.8966C44.3728 13.138 44.1455 13.4365 43.9879 13.7724C43.8303 14.1084 43.7459 14.474 43.7404 14.845C43.7349 15.216 43.8084 15.5839 43.956 15.9244C44.1035 16.2648 44.3219 16.57 44.5964 16.8196C44.8709 17.0692 45.1955 17.2575 45.5484 17.3721C45.9013 17.4867 46.2745 17.5249 46.6434 17.4842C47.0122 17.4435 47.3681 17.3249 47.6875 17.1361C48.1111 17.3874 48.5975 17.5126 49.0898 17.4971C49.582 17.4816 50.0597 17.326 50.4665 17.0486C50.7171 17.2744 51.0277 17.4226 51.3608 17.4753C51.6939 17.5279 52.0352 17.4828 52.3431 17.3453C52.6511 17.2078 52.9125 16.9839 53.0957 16.7007C53.2789 16.4176 53.3759 16.0873 53.3751 15.7501C52.9468 15.7489 52.5342 15.5893 52.2165 15.3021C51.7835 15.5947 51.2727 15.7508 50.75 15.7501Z" fill="#4891D3"/>
<path d="M7.87501 9.62498C7.35237 9.62568 6.84153 9.46962 6.40851 9.17698C6.17311 9.39044 5.88361 9.53515 5.5716 9.59534C5.25958 9.65553 4.93702 9.62888 4.63912 9.51829C4.34121 9.4077 4.07939 9.21743 3.88222 8.96823C3.68505 8.71902 3.56011 8.42046 3.52101 8.1051C3.30656 8.22443 3.11971 8.38768 2.97267 8.58418C2.82564 8.78068 2.72174 9.006 2.66776 9.2454C2.61379 9.48481 2.61095 9.73291 2.65944 9.97349C2.70792 10.2141 2.80664 10.4417 2.94914 10.6415C3.09164 10.8413 3.27471 11.0088 3.48638 11.133C3.69805 11.2572 3.93355 11.3353 4.17748 11.3623C4.42141 11.3892 4.66829 11.3644 4.90196 11.2894C5.13563 11.2144 5.35084 11.0909 5.53351 10.927C5.91261 11.1831 6.3523 11.3353 6.80863 11.3683C7.26497 11.4013 7.72197 11.314 8.13399 11.1151C8.54601 10.9162 8.89862 10.6126 9.15658 10.2347C9.41454 9.85685 9.56882 9.4179 9.60401 8.96173C9.12824 9.38691 8.51308 9.62289 7.87501 9.62498Z" fill="#4891D3"/>
</svg>
