<svg width="52" height="52" viewBox="0 0 52 52" fill="none" xmlns="http://www.w3.org/2000/svg">
<g clip-path="url(#clip0)">
<path d="M45.4641 52C45.0402 52 44.6967 51.6565 44.6967 51.2325V48.4976C44.6967 48.0737 45.0402 47.7302 45.4641 47.7302C45.888 47.7302 46.2315 48.0737 46.2315 48.4976V51.2325C46.2315 51.6564 45.8879 52 45.4641 52Z" fill="#5D5360"/>
<path d="M5.38343 52C4.95951 52 4.61601 51.6565 4.61601 51.2325V48.4976C4.61601 48.0737 4.95951 47.7302 5.38343 47.7302C5.80736 47.7302 6.15086 48.0737 6.15086 48.4976V51.2325C6.15086 51.6564 5.80736 52 5.38343 52Z" fill="#5D5360"/>
<path d="M47.6168 15.1097V23.1902L26 24.4842L3.63821 23.1902V15.1097C3.63821 10.5727 7.31571 6.89417 11.8538 6.89417H39.4012C43.9383 6.89417 47.6168 10.5727 47.6168 15.1097Z" fill="#EDF4FF"/>
<path d="M39.4009 6.89392H36.8254C41.3629 6.89392 45.0412 10.5722 45.0412 15.1097V23.1899H47.6167V15.1097C47.6167 10.5722 43.9383 6.89392 39.4009 6.89392Z" fill="#DBEAFF"/>
<path d="M14.6666 6.8949H19.6835C15.5763 6.8949 12.2344 10.2358 12.2344 14.343V23.9583C12.2344 24.382 11.8906 24.7258 11.467 24.7258C11.0433 24.7258 10.6995 24.382 10.6995 23.9583V14.343C10.6995 11.2467 12.2753 8.51058 14.6666 6.8949Z" fill="#DBEAFF"/>
<path d="M24.8601 6.89417H26.3949V23.9576C26.3949 24.3812 26.0511 24.725 25.6275 24.725C25.2028 24.725 24.8601 24.3812 24.8601 23.9576V6.89417Z" fill="#DBEAFF"/>
<path d="M40.5964 14.3423V16.4819C40.5964 16.9065 40.2526 17.2493 39.8289 17.2493C39.4053 17.2493 39.0615 16.9065 39.0615 16.4819V14.3423C39.0615 10.235 35.7196 6.89417 31.6124 6.89417H36.6293C39.0206 8.50985 40.5964 11.246 40.5964 14.3423Z" fill="#DBEAFF"/>
<path d="M29.8796 10.5023C30.3186 10.5023 30.6744 10.1465 30.6744 9.70759C30.6744 9.26866 30.3186 8.91284 29.8796 8.91284C29.4407 8.91284 29.0849 9.26866 29.0849 9.70759C29.0849 10.1465 29.4407 10.5023 29.8796 10.5023Z" fill="#FFF0AF"/>
<path d="M20.5461 16.4823C20.985 16.4823 21.3409 16.1265 21.3409 15.6876C21.3409 15.2486 20.985 14.8928 20.5461 14.8928C20.1072 14.8928 19.7514 15.2486 19.7514 15.6876C19.7514 16.1265 20.1072 16.4823 20.5461 16.4823Z" fill="#FFF0AF"/>
<path d="M30.5883 23.1899L31.8762 24.6637L33.1639 23.1899L34.1877 21.409L33.1639 19.3744H30.5884L30.5883 23.1899Z" fill="#DBEAFF"/>
<path d="M29.4851 15.6876H32.0606L33.1638 19.3744H29.4851C29.1062 19.3744 28.799 19.0673 28.799 18.6884V16.3736C28.7991 15.9948 29.1062 15.6876 29.4851 15.6876Z" fill="#DBEAFF"/>
<path d="M33.1639 46.3638L22.1281 46.3634L17.4837 45.3407L12.8382 46.3634L2.60965 46.3638C2.23075 46.3638 1.92358 46.0566 1.92358 45.6777V26.9165L17.5437 26L33.1639 26.9165L33.8804 36.6401L33.1639 46.3638Z" fill="#DAD8DB"/>
<path d="M30.5883 26.9165V46.3638H33.1639L33.8804 36.6401L33.1639 26.9165H30.5883Z" fill="#C8C5C9"/>
<path d="M33.1639 23.1899H1.25868C0.879776 23.1899 0.572601 23.4971 0.572601 23.876V26.2305C0.572601 26.6094 0.879776 26.9166 1.25868 26.9166H33.1638L33.8803 25.0532L33.1639 23.1899Z" fill="#5D5360"/>
<path d="M30.5883 23.1899V26.9165H33.1639L33.8804 25.0531L33.1639 23.1899H30.5883Z" fill="#4B3F4E"/>
<path d="M33.1639 46.3637H49.2656C49.6445 46.3637 49.9517 46.0565 49.9517 45.6776V19.3744L41.5578 18.4319L33.1639 19.3744V46.3637Z" fill="#DAD8DB"/>
<path d="M47.3762 19.3744V45.6776C47.3762 46.0565 47.069 46.3637 46.6901 46.3637H49.2656C49.6445 46.3637 49.9517 46.0565 49.9517 45.6776V19.3744L48.1658 19.1738L47.3762 19.3744Z" fill="#C8C5C9"/>
<path d="M32.0605 15.6876H50.7412C51.1201 15.6876 51.4273 15.9948 51.4273 16.3737V18.6885C51.4273 19.0674 51.1201 19.3745 50.7412 19.3745H32.0605C31.6816 19.3745 31.3745 19.0674 31.3745 18.6885V16.3737C31.3746 15.9948 31.6816 15.6876 32.0605 15.6876Z" fill="#5D5360"/>
<path d="M50.7413 15.6876H48.1658C48.5447 15.6876 48.8519 15.9948 48.8519 16.3737V18.6885C48.8519 19.0674 48.5447 19.3745 48.1658 19.3745H50.7413C51.1202 19.3745 51.4274 19.0674 51.4274 18.6885V16.3737C51.4273 15.9948 51.1201 15.6876 50.7413 15.6876Z" fill="#4B3F4E"/>
<path d="M22.128 37.2688V46.3633H12.8381V37.2688C12.8381 36.8851 13.1502 36.573 13.5349 36.573H21.4322C21.817 36.573 22.128 36.8851 22.128 37.2688Z" fill="#C365AF"/>
<path d="M21.4322 36.5731H18.9451C19.3295 36.5731 19.6411 36.8847 19.6411 37.2691V46.3637H22.1282V37.2691C22.1282 36.8848 21.8166 36.5731 21.4322 36.5731Z" fill="#B2529F"/>
<path d="M14.9725 33.1826H5.73113C5.37535 33.1826 5.08701 32.8942 5.08701 32.5384V30.6904C5.08701 30.3346 5.37535 30.0463 5.73113 30.0463H14.9725C15.3282 30.0463 15.6166 30.3346 15.6166 30.6904V32.5384C15.6166 32.8942 15.3282 33.1826 14.9725 33.1826Z" fill="#ECEAEC"/>
<path d="M14.9725 30.0464H12.8542C13.2099 30.0464 13.4983 30.3347 13.4983 30.6905V32.5386C13.4983 32.8944 13.2099 33.1827 12.8542 33.1827H14.9725C15.3282 33.1827 15.6166 32.8944 15.6166 32.5386V30.6905C15.6166 30.3347 15.3282 30.0464 14.9725 30.0464Z" fill="#DAD8DB"/>
<path d="M29.2355 33.1826H19.9942C19.6384 33.1826 19.3501 32.8942 19.3501 32.5384V30.6904C19.3501 30.3346 19.6384 30.0463 19.9942 30.0463H29.2355C29.5913 30.0463 29.8796 30.3346 29.8796 30.6904V32.5384C29.8796 32.8942 29.5913 33.1826 29.2355 33.1826Z" fill="#ECEAEC"/>
<path d="M29.2355 30.0464H27.1172C27.473 30.0464 27.7613 30.3347 27.7613 30.6905V32.5386C27.7613 32.8944 27.473 33.1827 27.1172 33.1827H29.2355C29.5913 33.1827 29.8796 32.8944 29.8796 32.5386V30.6905C29.8796 30.3347 29.5913 30.0464 29.2355 30.0464Z" fill="#DAD8DB"/>
<path d="M8.74363 39.7094H5.73113C5.37535 39.7094 5.08701 39.4211 5.08701 39.0653V37.2172C5.08701 36.8615 5.37535 36.5731 5.73113 36.5731H8.74363C9.09941 36.5731 9.38776 36.8615 9.38776 37.2172V39.0653C9.38776 39.421 9.09931 39.7094 8.74363 39.7094Z" fill="#ECEAEC"/>
<path d="M8.74363 36.5731H6.62523C6.98101 36.5731 7.26936 36.8615 7.26936 37.2172V39.0653C7.26936 39.4211 6.98101 39.7094 6.62523 39.7094H8.74353C9.09931 39.7094 9.38766 39.4211 9.38766 39.0653V37.2172C9.38776 36.8616 9.09931 36.5731 8.74363 36.5731Z" fill="#DAD8DB"/>
<path d="M29.2355 39.7094H26.3938C25.9705 39.7094 25.6272 39.3662 25.6272 38.9428V37.3397C25.6272 36.9164 25.9704 36.5731 26.3938 36.5731H29.2355C29.5913 36.5731 29.8796 36.8615 29.8796 37.2172V39.0653C29.8796 39.421 29.5913 39.7094 29.2355 39.7094Z" fill="#ECEAEC"/>
<path d="M29.2355 36.5731H27.1172C27.473 36.5731 27.7613 36.8615 27.7613 37.2172V39.0653C27.7613 39.4211 27.473 39.7094 27.1172 39.7094H29.2355C29.5913 39.7094 29.8796 39.4211 29.8796 39.0653V37.2172C29.8796 36.8616 29.5913 36.5731 29.2355 36.5731Z" fill="#DAD8DB"/>
<path d="M46.2162 26.7738H36.9748C36.619 26.7738 36.3307 26.4854 36.3307 26.1296V24.2816C36.3307 23.9258 36.619 23.6375 36.9748 23.6375H46.2162C46.5719 23.6375 46.8603 23.9258 46.8603 24.2816V26.1296C46.8603 26.4854 46.5719 26.7738 46.2162 26.7738Z" fill="#ECEAEC"/>
<path d="M46.2162 23.6376H44.0979C44.4537 23.6376 44.742 23.9259 44.742 24.2817V26.1298C44.742 26.4855 44.4537 26.7739 44.0979 26.7739H46.2162C46.5719 26.7739 46.8603 26.4855 46.8603 26.1298V24.2817C46.8603 23.9259 46.5719 23.6376 46.2162 23.6376Z" fill="#DAD8DB"/>
<path d="M39.2711 33.3007H36.9748C36.619 33.3007 36.3307 33.0124 36.3307 32.6566V30.8086C36.3307 30.4528 36.619 30.1644 36.9748 30.1644H39.2711C39.6268 30.1644 39.9152 30.4528 39.9152 30.8086V32.6566C39.9151 33.0123 39.6267 33.3007 39.2711 33.3007Z" fill="#ECEAEC"/>
<path d="M39.2711 30.1644H37.1528C37.5085 30.1644 37.7969 30.4528 37.7969 30.8086V32.6566C37.7969 33.0124 37.5085 33.3007 37.1528 33.3007H39.2711C39.6267 33.3007 39.9152 33.0124 39.9152 32.6566V30.8086C39.9151 30.4529 39.6267 30.1644 39.2711 30.1644Z" fill="#DAD8DB"/>
<path d="M46.2162 33.3007H43.9682C43.6124 33.3007 43.3241 33.0124 43.3241 32.6566V30.8086C43.3241 30.4528 43.6124 30.1644 43.9682 30.1644H46.2162C46.5719 30.1644 46.8603 30.4528 46.8603 30.8086V32.6566C46.8603 33.0123 46.5719 33.3007 46.2162 33.3007Z" fill="#ECEAEC"/>
<path d="M46.2162 30.1644H44.0979C44.4537 30.1644 44.742 30.4528 44.742 30.8086V32.6566C44.742 33.0124 44.4537 33.3007 44.0979 33.3007H46.2162C46.5719 33.3007 46.8603 33.0124 46.8603 32.6566V30.8086C46.8603 30.4529 46.5719 30.1644 46.2162 30.1644Z" fill="#DAD8DB"/>
<path d="M39.2711 39.7094H36.9748C36.619 39.7094 36.3307 39.4211 36.3307 39.0653V37.2172C36.3307 36.8615 36.619 36.5731 36.9748 36.5731H39.2711C39.6268 36.5731 39.9152 36.8615 39.9152 37.2172V39.0653C39.9151 39.421 39.6267 39.7094 39.2711 39.7094Z" fill="#ECEAEC"/>
<path d="M39.2711 36.5731H37.1528C37.5085 36.5731 37.7969 36.8615 37.7969 37.2172V39.0653C37.7969 39.4211 37.5085 39.7094 37.1528 39.7094H39.2711C39.6267 39.7094 39.9152 39.4211 39.9152 39.0653V37.2172C39.9151 36.8616 39.6267 36.5731 39.2711 36.5731Z" fill="#DAD8DB"/>
<path d="M46.2162 39.7094H43.9682C43.6124 39.7094 43.3241 39.4211 43.3241 39.0653V37.2172C43.3241 36.8615 43.6124 36.5731 43.9682 36.5731H46.2162C46.5719 36.5731 46.8603 36.8615 46.8603 37.2172V39.0653C46.8603 39.421 46.5719 39.7094 46.2162 39.7094Z" fill="#ECEAEC"/>
<path d="M46.2162 36.5731H44.0979C44.4537 36.5731 44.742 36.8615 44.742 37.2172V39.0653C44.742 39.4211 44.4537 39.7094 44.0979 39.7094H46.2162C46.5719 39.7094 46.8603 39.4211 46.8603 39.0653V37.2172C46.8603 36.8616 46.5719 36.5731 46.2162 36.5731Z" fill="#DAD8DB"/>
<path d="M43.1884 48.4978L41.8164 47.1257C41.5081 46.8174 41.5081 46.3176 41.8164 46.0092L43.6483 44.1773C43.9566 43.869 44.4564 43.869 44.7648 44.1773L46.1369 45.5493C46.9511 46.3635 46.9511 47.6836 46.1369 48.4978C45.3227 49.3119 44.0026 49.3119 43.1884 48.4978Z" fill="#FFE07D"/>
<path d="M46.1369 45.5493L44.7648 44.1773C44.4565 43.869 43.9567 43.869 43.6483 44.1773L42.9915 44.8341C43.1715 44.8487 43.3476 44.9244 43.4855 45.0623L44.0185 45.5493C44.8327 46.3635 44.8327 47.6836 44.0185 48.4977C43.8915 48.6247 43.7512 48.7294 43.6034 48.8168C44.403 49.2897 45.4496 49.1849 46.1369 48.4977C46.9511 47.6836 46.9511 46.3635 46.1369 45.5493Z" fill="#FFD064"/>
<path d="M7.78445 48.4978L9.1565 47.1257C9.4648 46.8174 9.4648 46.3176 9.1565 46.0092L7.32461 44.1773C7.01631 43.869 6.51646 43.869 6.20805 44.1773L4.836 45.5493C4.02181 46.3635 4.02181 47.6836 4.836 48.4978C5.65019 49.3119 6.97026 49.3119 7.78445 48.4978Z" fill="#FFE07D"/>
<path d="M9.1565 46.0092L7.32461 44.1773C7.01631 43.869 6.51646 43.869 6.20806 44.1773L5.56792 44.8174C5.79488 44.7952 6.0296 44.8709 6.20355 45.0448L7.0382 46.0092C7.3465 46.3175 7.3465 46.8173 7.0382 47.1257L5.66615 48.4978C5.53917 48.6247 5.39888 48.7295 5.25113 48.8169C6.05068 49.2897 7.09725 49.185 7.78445 48.4978L9.1565 47.1257C9.4648 46.8174 9.4648 46.3175 9.1565 46.0092Z" fill="#FFD064"/>
<path d="M16.7162 36.573H18.251V46.3633H16.7162V36.573Z" fill="#B2529F"/>
<path d="M21.6316 1.96338L22.2849 1.31005C22.5846 1.01024 22.5846 0.524407 22.2849 0.224702C21.9851 -0.0749007 21.4993 -0.0749007 21.1996 0.224702L20.5462 0.878037L19.8929 0.224702C19.5931 -0.0749007 19.1072 -0.0749007 18.8075 0.224702C18.5078 0.524509 18.5078 1.01034 18.8075 1.31005L19.4609 1.96338L18.8075 2.61671C18.5078 2.91652 18.5078 3.40235 18.8075 3.70206C18.9574 3.85186 19.1539 3.92676 19.3503 3.92676C19.5466 3.92676 19.7431 3.85186 19.893 3.70206L20.5463 3.04872L21.1997 3.70206C21.3496 3.85186 21.546 3.92676 21.7424 3.92676C21.9387 3.92676 22.1352 3.85186 22.2851 3.70206C22.5848 3.40225 22.5848 2.91642 22.2851 2.61671L21.6316 1.96338Z" fill="#FFF0AF"/>
</g>
<defs>
<clipPath id="clip0">
<rect width="52" height="52" fill="white"/>
</clipPath>
</defs>
</svg>
