<svg width="62" height="62" viewBox="0 0 62 62" fill="none" xmlns="http://www.w3.org/2000/svg">
<path d="M49.4062 30.0312C49.1493 30.0312 48.9029 29.9292 48.7212 29.7475C48.5396 29.5658 48.4375 29.3194 48.4375 29.0625V25.1875C48.4375 24.9306 48.5396 24.6842 48.7212 24.5025C48.9029 24.3208 49.1493 24.2188 49.4062 24.2188C49.6632 24.2188 49.9096 24.3208 50.0913 24.5025C50.2729 24.6842 50.375 24.9306 50.375 25.1875V29.0625C50.375 29.3194 50.2729 29.5658 50.0913 29.7475C49.9096 29.9292 49.6632 30.0312 49.4062 30.0312Z" fill="#57B7EB"/>
<path d="M44.5625 35.8438H58.125V59.0938H44.5625V35.8438Z" fill="#2D72BC"/>
<path d="M44.5625 28.0938H50.375V35.8438H44.5625V28.0938Z" fill="#4891D3"/>
<path d="M44.5625 39.7188H58.125V43.5938H44.5625V39.7188Z" fill="#57B7EB"/>
<path d="M44.5625 43.5938H58.125V47.4688H44.5625V43.5938Z" fill="#4891D3"/>
<path d="M44.5625 47.4688H58.125V51.3438H44.5625V47.4688Z" fill="#2D72BC"/>
<path d="M44.5625 51.3438H58.125V55.2188H44.5625V51.3438Z" fill="#57B7EB"/>
<path d="M54.25 35.8438H58.125V39.7188H54.25V35.8438Z" fill="#4891D3"/>
<path d="M48.4375 43.5938H52.3125V47.4688H48.4375V43.5938Z" fill="#2D72BC"/>
<path d="M50.375 51.3438H54.25V55.2188H50.375V51.3438Z" fill="#4891D3"/>
<path d="M44.5625 28.0938H50.375V31.9688H44.5625V28.0938Z" fill="#2D72BC"/>
<path d="M3.875 28.0938H17.4375V59.0938H3.875V28.0938Z" fill="#A1D51C"/>
<path d="M6.78125 43.5938V28.0938H3.875V59.0938H17.4375V53.2812H16.4688C13.8995 53.2812 11.4354 52.2606 9.61865 50.4438C7.80189 48.6271 6.78125 46.163 6.78125 43.5938Z" fill="#7AB92D"/>
<path d="M13.5625 31.9688H17.4375V35.8438H13.5625V31.9688Z" fill="#57B7EB"/>
<path d="M3.875 31.9688H9.6875V35.8438H3.875V31.9688Z" fill="#57B7EB"/>
<path d="M13.5625 39.7188H17.4375V43.5938H13.5625V39.7188Z" fill="#57B7EB"/>
<path d="M3.875 39.7188H9.6875V43.5938H3.875V39.7188Z" fill="#57B7EB"/>
<path d="M13.5625 47.4688H17.4375V51.3438H13.5625V47.4688Z" fill="#57B7EB"/>
<path d="M3.875 47.4688H9.6875V51.3438H3.875V47.4688Z" fill="#57B7EB"/>
<path d="M9.6875 50.5068C8.80153 49.6373 8.09054 48.606 7.59306 47.4688H3.875V51.3438H9.6875V50.5068Z" fill="#4891D3"/>
<path d="M17.4375 35.8438H13.5625V31.9688L17.4375 35.8438Z" fill="#2D72BC"/>
<path d="M9.6875 35.8438H3.875V31.9688L9.6875 35.8438Z" fill="#4891D3"/>
<path d="M17.4375 43.5938H13.5625V39.7188L17.4375 43.5938Z" fill="#2D72BC"/>
<path d="M9.6875 43.5938H3.875V39.7188L9.6875 43.5938Z" fill="#4891D3"/>
<path d="M17.4375 51.3438H13.5625V47.4688L17.4375 51.3438Z" fill="#2D72BC"/>
<path d="M9.6875 51.3438H3.875V47.4688L9.6875 51.3438Z" fill="#2D72BC"/>
<path d="M3.875 31.9688H6.78125V35.8438H3.875V31.9688Z" fill="#4891D3"/>
<path d="M3.875 39.7188H6.78125V43.5938H3.875V39.7188Z" fill="#4891D3"/>
<path d="M31 8.71875C30.7431 8.71875 30.4967 8.61669 30.315 8.43501C30.1333 8.25333 30.0312 8.00693 30.0312 7.75V3.875C30.0312 3.61807 30.1333 3.37167 30.315 3.18999C30.4967 3.00831 30.7431 2.90625 31 2.90625C31.2569 2.90625 31.5033 3.00831 31.685 3.18999C31.8667 3.37167 31.9688 3.61807 31.9688 3.875V7.75C31.9688 8.00693 31.8667 8.25333 31.685 8.43501C31.5033 8.61669 31.2569 8.71875 31 8.71875Z" fill="#FCBC04"/>
<path d="M17.4375 16.4688H44.5625V55.2188H17.4375V16.4688Z" fill="#D0D8DA"/>
<path d="M23.25 29.0625V16.4688H17.4375V55.2188H44.5625V41.6562H35.8438C32.5037 41.6562 29.3004 40.3294 26.9386 37.9676C24.5768 35.6058 23.25 32.4026 23.25 29.0625Z" fill="#93999A"/>
<path d="M25.1875 10.6562H36.8125V16.4688H25.1875V10.6562Z" fill="#FCBC04"/>
<path d="M29.0625 6.78125H32.9375V10.6562H29.0625V6.78125Z" fill="#4891D3"/>
<path d="M12.5938 55.2188H49.4062V59.0938H12.5938V55.2188Z" fill="#D0D8DA"/>
<path d="M23.25 47.4688H38.75V55.2188H23.25V47.4688Z" fill="#2D72BC"/>
<path d="M21.3125 43.5938H40.6875V47.4688H21.3125V43.5938Z" fill="#FCBC04"/>
<path d="M21.3125 20.3438H25.1875V24.2188H21.3125V20.3438Z" fill="#57B7EB"/>
<path d="M29.0625 20.3438H32.9375V24.2188H29.0625V20.3438Z" fill="#57B7EB"/>
<path d="M36.8125 20.3438H40.6875V24.2188H36.8125V20.3438Z" fill="#57B7EB"/>
<path d="M21.3125 28.0938H25.1875V31.9688H21.3125V28.0938Z" fill="#57B7EB"/>
<path d="M29.0625 28.0938H32.9375V31.9688H29.0625V28.0938Z" fill="#57B7EB"/>
<path d="M36.8125 28.0938H40.6875V31.9688H36.8125V28.0938Z" fill="#57B7EB"/>
<path d="M21.3125 35.8438H25.1875V39.7188H21.3125V35.8438Z" fill="#4891D3"/>
<path d="M29.0625 35.8438H32.9375V39.7188H29.0625V35.8438Z" fill="#57B7EB"/>
<path d="M36.8125 35.8438H40.6875V39.7188H36.8125V35.8438Z" fill="#57B7EB"/>
<path d="M25.1875 24.2188H21.3125V20.3438L25.1875 24.2188Z" fill="#4891D3"/>
<path d="M32.9375 24.2188H29.0625V20.3438L32.9375 24.2188Z" fill="#4891D3"/>
<path d="M40.6875 24.2188H36.8125V20.3438L40.6875 24.2188Z" fill="#4891D3"/>
<path d="M25.1875 31.9688H21.3125V28.0938L25.1875 31.9688Z" fill="#4891D3"/>
<path d="M32.9375 31.9688H29.0625V28.0938L32.9375 31.9688Z" fill="#4891D3"/>
<path d="M40.6875 31.9688H36.8125V28.0938L40.6875 31.9688Z" fill="#4891D3"/>
<path d="M25.1875 39.7188H21.3125V35.8438L25.1875 39.7188Z" fill="#2D72BC"/>
<path d="M32.9375 39.7188H29.0625V35.8438L32.9375 39.7188Z" fill="#4891D3"/>
<path d="M40.6875 39.7188H36.8125V35.8438L40.6875 39.7188Z" fill="#4891D3"/>
<path d="M26.1562 49.4062L31.9688 55.2188H38.75V53.2812L34.875 49.4062H26.1562Z" fill="#4891D3"/>
<path d="M23.25 43.5938H40.6875V45.5312H25.1875C24.6736 45.5312 24.1808 45.3271 23.8175 44.9638C23.4541 44.6004 23.25 44.1076 23.25 43.5938Z" fill="#F9E109"/>
<path d="M27.125 10.6562H36.8125V13.5625H30.0312C29.2605 13.5625 28.5212 13.2563 27.9762 12.7113C27.4312 12.1663 27.125 11.427 27.125 10.6562Z" fill="#F9E109"/>
<path d="M14.5312 55.2188H12.5938V59.0938H49.4062V57.1562H16.4688C15.9549 57.1562 15.4621 56.9521 15.0987 56.5888C14.7354 56.2254 14.5312 55.7326 14.5312 55.2188Z" fill="#93999A"/>
<path d="M21.3125 20.3438H23.25V24.2188H21.3125V20.3438Z" fill="#4891D3"/>
<path d="M21.3125 31.9688H23.6007C23.3713 31.0169 23.2537 30.0416 23.25 29.0625V28.0938H21.3125V31.9688Z" fill="#4891D3"/>
<path d="M23.25 22.2812L21.3125 20.3438V24.2188H23.25V22.2812Z" fill="#2D72BC"/>
<path d="M21.3125 28.0938V31.9688H23.6007C23.4599 31.3524 23.3644 30.7265 23.3149 30.0962L21.3125 28.0938Z" fill="#2D72BC"/>
<path d="M30.0312 47.4688H31.9688V55.2188H30.0312V47.4688Z" fill="#93999A"/>
<path d="M6.78125 33.9062L3.875 31.9688V35.8438H6.78125V33.9062Z" fill="#2D72BC"/>
<path d="M3.875 39.7188V43.5938H6.78125V41.6562L3.875 39.7188Z" fill="#2D72BC"/>
</svg>
