<svg width="60" height="60" viewBox="0 0 60 60" fill="none" xmlns="http://www.w3.org/2000/svg">
<g clip-path="url(#clip0)">
<path d="M46.6899 4.1932C46.9377 3.79793 46.9377 3.29602 46.6899 2.90062C45.5983 1.15863 43.6622 0 41.4546 0C39.247 0 37.311 1.15863 36.2192 2.90074C35.9715 3.29602 35.9715 3.79793 36.2192 4.19332C37.311 5.93531 39.2471 7.09406 41.4546 7.09406C43.6621 7.09406 45.5983 5.93519 46.6899 4.1932Z" fill="#6DC17D"/>
<path d="M28.3508 12.7162C27.8508 12.7162 27.4454 12.3109 27.4454 11.8109V6.91265C27.4454 4.55754 29.3615 2.6414 31.7166 2.6414H42.519C43.0192 2.6414 43.4244 3.04675 43.4244 3.54679C43.4244 4.04683 43.0191 4.45218 42.519 4.45218H31.7166C30.36 4.45218 29.2563 5.55597 29.2563 6.91254V11.8107C29.2562 12.3109 28.8509 12.7162 28.3508 12.7162Z" fill="#FFCDBE"/>
<path d="M25.0919 9.34102V21.8759H31.6106V9.34102C31.6106 8.93391 31.2806 8.60391 30.8735 8.60391H25.8289C25.4219 8.60403 25.0919 8.93403 25.0919 9.34102Z" fill="#5392F9"/>
<path d="M30.8735 8.60403H27.8421C28.2492 8.60403 28.5792 8.93403 28.5792 9.34114V21.876H31.6106V9.34103C31.6106 8.93403 31.2806 8.60403 30.8735 8.60403Z" fill="#4071F7"/>
<path d="M17.9107 10.6556V16.0669C17.9107 16.4607 17.5056 16.7243 17.1455 16.5648L2.49959 10.0754C2.08006 9.88956 1.60803 10.1967 1.60803 10.6556V39.6608C1.60803 40.0679 1.93803 40.3979 2.34514 40.3979H33.4761C33.8832 40.3979 34.2132 40.0679 34.2132 39.6608V17.6964C34.2132 17.2145 33.9292 16.778 33.4887 16.5828L18.8023 10.0754C18.3827 9.88956 17.9107 10.1967 17.9107 10.6556Z" fill="#6DC17D"/>
<path d="M33.4887 16.5829L30.8438 15.4109C30.9043 15.5564 30.9394 15.7138 30.9394 15.8775V39.6608C30.9394 40.0679 30.6094 40.3979 30.2023 40.3979H33.4761C33.8832 40.3979 34.2132 40.0679 34.2132 39.6608V17.6964C34.2132 17.2145 33.9292 16.778 33.4887 16.5829Z" fill="#5EA570"/>
<path d="M23.0702 23.6967V27.687C23.0702 27.9779 23.306 28.2137 23.597 28.2137H28.5269C28.8179 28.2137 29.0537 27.9779 29.0537 27.687V23.6967C29.0537 23.4057 28.8179 23.17 28.5269 23.17H23.597C23.306 23.17 23.0702 23.4059 23.0702 23.6967Z" fill="#F7F3F1"/>
<path d="M6.76758 23.6967V27.687C6.76758 27.9779 7.00336 28.2137 7.29434 28.2137H12.2243C12.5153 28.2137 12.7511 27.9779 12.7511 27.687V23.6967C12.7511 23.4057 12.5153 23.17 12.2243 23.17H7.29434C7.00348 23.17 6.76758 23.4059 6.76758 23.6967Z" fill="#F7F3F1"/>
<path d="M57.1794 60H31.1922C30.5225 60 29.9797 59.4571 29.9797 58.7875V36.7198C29.9797 36.05 30.5226 35.5072 31.1922 35.5072H41.0599L44.1859 37.851L47.3119 35.5072H57.1795C57.8492 35.5072 58.3921 36.0502 58.3921 36.7198V58.7875C58.3919 59.4571 57.849 60 57.1794 60Z" fill="#E9A52D"/>
<path d="M48.6022 54.8843H39.7694C39.338 54.8843 38.988 54.5345 38.988 54.1029V48.0148C38.988 47.5833 39.3378 47.2334 39.7694 47.2334H48.6022C49.0337 47.2334 49.3836 47.5832 49.3836 48.0148V54.1029C49.3836 54.5345 49.0337 54.8843 48.6022 54.8843Z" fill="#F7F3F1"/>
<path d="M45.7772 51.9379H42.5945C42.109 51.9379 41.7156 51.5443 41.7156 51.0589C41.7156 50.5736 42.109 50.18 42.5945 50.18H45.7772C46.2627 50.18 46.6561 50.5736 46.6561 51.0589C46.6561 51.5443 46.2626 51.9379 45.7772 51.9379Z" fill="#A87C72"/>
<path d="M57.1794 35.5072H53.9055C54.5752 35.5072 55.1181 36.0502 55.1181 36.7198V58.7875C55.1181 59.4572 54.5751 60 53.9055 60H57.1794C57.8491 60 58.3919 59.4571 58.3919 58.7875V36.7198C58.3919 36.0502 57.849 35.5072 57.1794 35.5072Z" fill="#E38523"/>
<path d="M41.0599 35.5072V42.2657C41.0599 42.6679 41.5182 42.8982 41.841 42.6582L43.894 41.1321C44.0672 41.0033 44.3045 41.0033 44.4777 41.1321L46.5307 42.6582C46.8534 42.8981 47.3117 42.6679 47.3117 42.2657V35.5072H41.0599Z" fill="#F7F3F1"/>
<path d="M51.1159 20.0974H45.6852C45.4168 20.0974 45.1992 19.8798 45.1992 19.6114V17.3183C45.1992 16.9414 44.7526 16.7427 44.4726 16.9951L39.2109 21.7397C39.0193 21.9125 39.0193 22.2132 39.2109 22.386L44.4725 27.1305C44.7525 27.383 45.1991 27.1843 45.1991 26.8073V24.5145C45.1991 24.2461 45.4167 24.0285 45.6851 24.0285H49.1252C49.6082 24.0285 49.9996 24.42 49.9996 24.9028V30.8673C49.9996 31.1686 50.2438 31.4128 50.5451 31.4128H53.3839C53.6852 31.4128 53.9294 31.1686 53.9294 30.8673V22.911C53.9296 21.3572 52.6698 20.0974 51.1159 20.0974Z" fill="#5392F9"/>
<path d="M14.3302 55.8076H19.7609C20.0292 55.8076 20.2468 56.0252 20.2468 56.2936V58.5867C20.2468 58.9636 20.6934 59.1623 20.9734 58.9099L26.2351 54.1653C26.4267 53.9925 26.4267 53.6918 26.2351 53.5191L20.9735 48.7745C20.6936 48.5221 20.247 48.7207 20.247 49.0977V51.3908C20.247 51.6592 20.0293 51.8768 19.761 51.8768H16.3208C15.8379 51.8768 15.4465 51.4853 15.4465 51.0025V45.038C15.4465 44.7367 15.2023 44.4925 14.901 44.4925H12.0621C11.7608 44.4925 11.5166 44.7367 11.5166 45.038V52.9943C11.5165 54.548 12.7762 55.8076 14.3302 55.8076Z" fill="#5392F9"/>
</g>
<defs>
<clipPath id="clip0">
<rect width="60" height="60" fill="white"/>
</clipPath>
</defs>
</svg>
