<svg width="54" height="54" viewBox="0 0 54 54" fill="none" xmlns="http://www.w3.org/2000/svg">
<path d="M12.2372 25.4322L8.13188 13.6056C7.95823 12.913 7.52934 12.3115 6.93109 11.9216C6.33284 11.5318 5.6094 11.3823 4.90562 11.5031C4.54473 11.5801 4.20321 11.7295 3.90179 11.9424C3.60037 12.1552 3.34533 12.4271 3.15212 12.7415C2.95891 13.0559 2.83157 13.4062 2.77781 13.7713C2.72405 14.1364 2.74499 14.5086 2.83937 14.8653L7.0625 27.9062L12.2372 25.4322Z" fill="#FFAC96"/>
<path d="M41.7628 25.4322L45.8681 13.6056C46.0418 12.913 46.4707 12.3115 47.0689 11.9216C47.6672 11.5318 48.3906 11.3823 49.0944 11.5031C49.4553 11.5801 49.7968 11.7295 50.0982 11.9424C50.3996 12.1552 50.6547 12.4271 50.8479 12.7415C51.0411 13.0559 51.1684 13.4062 51.2222 13.7713C51.276 14.1364 51.255 14.5086 51.1606 14.8653L46.9375 27.9062L41.7628 25.4322Z" fill="#FFAC96"/>
<path d="M20.6979 30.3368L12.6867 25.6406C12.1323 25.3204 11.4826 25.2066 10.8524 25.3192C10.2222 25.4318 9.65212 25.7636 9.24294 26.256L6.31938 17.2306C6.14573 16.538 5.71684 15.9365 5.11859 15.5466C4.52034 15.1568 3.7969 15.0073 3.09312 15.1281C2.73223 15.2051 2.39071 15.3545 2.08929 15.5674C1.78787 15.7802 1.53283 16.0521 1.33962 16.3665C1.14641 16.6809 1.01907 17.0312 0.965308 17.3963C0.911548 17.7614 0.932494 18.1336 1.02687 18.4903L4.96906 33.1987C5.1499 33.8867 5.53167 34.5051 6.06562 34.975L12.1919 40.4216C12.5741 40.7619 12.8799 41.1793 13.0892 41.6464C13.2985 42.1134 13.4066 42.6195 13.4063 43.1313V46.0312H24.2813V36.5917C24.2813 35.3272 23.9507 34.0846 23.3221 32.9874C22.6935 31.8901 21.7888 30.9764 20.6979 30.3368Z" fill="#FFBCAB"/>
<path d="M50.9069 15.1281C50.2031 15.0073 49.4797 15.1568 48.8814 15.5466C48.2832 15.9365 47.8543 16.538 47.6806 17.2306L44.7534 26.256C44.3443 25.7636 43.7742 25.4318 43.144 25.3192C42.5138 25.2066 41.8641 25.3204 41.3097 25.6406L33.2984 30.3368C32.2082 30.9768 31.3043 31.8908 30.6763 32.988C30.0484 34.0852 29.7183 35.3276 29.7188 36.5917V46.0312H40.5938V43.1313C40.5934 42.6195 40.7015 42.1134 40.9108 41.6464C41.1201 41.1793 41.4259 40.7619 41.8081 40.4216L47.9344 34.975C48.4683 34.5051 48.8501 33.8867 49.0309 33.1987L52.9731 18.4903C53.0675 18.1336 53.0885 17.7614 53.0347 17.3963C52.9809 17.0312 52.8536 16.6809 52.6604 16.3665C52.4672 16.0521 52.2121 15.7802 51.9107 15.5674C51.6093 15.3545 51.2678 15.2051 50.9069 15.1281Z" fill="#FFBCAB"/>
<path d="M28.8125 46.0312V53.2812H41.5V46.0312H40.5938H29.7188H28.8125Z" fill="#006DF0"/>
<path d="M25.1875 46.0312H24.2813H13.4063H12.5V53.2812H25.1875V46.0312Z" fill="#006DF0"/>
<path d="M39.18 14.82L38.5366 15.4634L27 27L15.4634 15.4634L14.82 14.82C14.0362 14.0685 13.4104 13.1682 12.9792 12.1716C12.548 11.1751 12.3202 10.1026 12.309 9.01681C12.2978 7.93107 12.5035 6.85402 12.914 5.84882C13.3245 4.84363 13.9316 3.93052 14.6997 3.16304C15.4678 2.39557 16.3814 1.78918 17.3869 1.37944C18.3924 0.969692 19.4696 0.764843 20.5554 0.776901C21.6411 0.788959 22.7135 1.01768 23.7097 1.44965C24.7058 1.88163 25.6057 2.50816 26.3566 3.2925L27 3.93594L27.6434 3.2925C28.3943 2.50816 29.2942 1.88163 30.2904 1.44965C31.2865 1.01768 32.3589 0.788959 33.4447 0.776901C34.5304 0.764843 35.6076 0.969692 36.6131 1.37944C37.6186 1.78918 38.5322 2.39557 39.3003 3.16304C40.0684 3.93052 40.6755 4.84363 41.086 5.84882C41.4966 6.85402 41.7022 7.93107 41.691 9.01681C41.6798 10.1026 41.452 11.1751 41.0208 12.1716C40.5896 13.1682 39.9638 14.0685 39.18 14.82Z" fill="#D80027"/>
<path d="M39.18 3.29251C38.3178 2.42113 37.2683 1.75774 36.1113 1.35275C34.9543 0.947768 33.7202 0.811837 32.5027 0.955292C34.029 1.12445 35.4765 1.72134 36.6784 2.6772C37.8803 3.63306 38.7877 4.90901 39.2961 6.35806C39.8045 7.80711 39.8932 9.3703 39.552 10.8676C39.2108 12.3648 38.4535 13.7352 37.3675 14.8209L36.7241 15.4644L26.0938 26.0938L27 27L38.5366 15.4634L39.18 14.82C40.7074 13.2907 41.5653 11.2177 41.5653 9.05626C41.5653 6.89485 40.7074 4.82181 39.18 3.29251Z" fill="#BD0022"/>
<path d="M28.8125 17.9375V14.3125H32.4375V10.6875H28.8125V7.0625H25.1875V10.6875H21.5625V14.3125H25.1875V17.9375H28.8125Z" fill="#F1F2F2"/>
<path d="M44.0321 28.5406L37.9747 31.8937C37.8016 31.994 37.6732 32.1565 37.6158 32.3482C37.5583 32.5398 37.5762 32.7461 37.6657 32.9251C37.7135 33.0208 37.7804 33.1056 37.8622 33.1745C37.9441 33.2434 38.0392 33.2948 38.1417 33.3255C38.2441 33.3562 38.3518 33.3657 38.4581 33.3532C38.5643 33.3408 38.6669 33.3067 38.7595 33.2531L44.0321 30.3531C44.5825 30.034 45.0037 29.5319 45.2221 28.9343C45.4405 28.3367 45.4424 27.6813 45.2274 27.0825C45.0177 27.6967 44.5932 28.2145 44.0321 28.5406Z" fill="#FFAC96"/>
<path d="M9.96793 28.5406L16.0253 31.8937C16.1984 31.994 16.3268 32.1565 16.3842 32.3482C16.4416 32.5398 16.4238 32.7461 16.3343 32.9251C16.2865 33.0208 16.2196 33.1056 16.1377 33.1745C16.0559 33.2434 15.9608 33.2948 15.8583 33.3255C15.7559 33.3562 15.6482 33.3657 15.5419 33.3532C15.4357 33.3408 15.3331 33.3067 15.2405 33.2531L9.96793 30.3531C9.41745 30.034 8.99633 29.5319 8.77791 28.9343C8.5595 28.3367 8.55761 27.6813 8.77259 27.0825C8.98226 27.6967 9.40676 28.2145 9.96793 28.5406Z" fill="#FFAC96"/>
</svg>
