<svg width="58" height="58" viewBox="0 0 58 58" fill="none" xmlns="http://www.w3.org/2000/svg">
<path d="M5.71999 52.21L0.169988 20.7C0.116398 20.3959 0.0829913 20.0885 0.0699877 19.78C-0.0124932 16.2076 2.55266 13.1217 6.07999 12.55L16.79 10.66L16.5 52.21H5.71999Z" fill="#35495E"/>
<path d="M46.94 50.83C46.7542 51.601 46.1305 52.1895 45.35 52.33L13.83 57.89C11.8432 58.2368 9.80338 57.7113 8.23155 56.4477C6.65971 55.1841 5.70814 53.3048 5.61996 51.29C5.5412 47.8744 7.89274 44.8816 11.23 44.15L20.06 46.63H20.05L12.1 48.04C11.2133 48.1958 10.4432 48.741 10.0016 49.5255C9.55996 50.3099 9.49331 51.2511 9.81996 52.09C10.3856 53.4411 11.8221 54.2095 13.26 53.93L37.35 49.68L46.94 50.83Z" fill="#2C3E50"/>
<path d="M20.05 46.63L12.1 48.04C11.2133 48.1958 10.4432 48.741 10.0016 49.5255C9.55998 50.3099 9.49332 51.2511 9.81998 52.09C10.3856 53.4411 11.8221 54.2095 13.26 53.93L37.35 49.68L20.05 46.63Z" fill="#F9EAB0"/>
<path d="M12.826 33.171L18.383 1.65699C18.5819 0.573746 19.6141 -0.148816 20.7 0.0349927L51.977 5.54999C55.5069 6.12216 58.074 9.21 57.992 12.785C57.9784 13.0922 57.945 13.3981 57.892 13.701L52.335 45.215L12.826 33.171Z" fill="#E64C3C"/>
<path d="M45.438 10.474C45.3794 10.474 45.3208 10.4689 45.263 10.459L22.612 6.46499C22.1008 6.33892 21.775 5.83811 21.8668 5.31969C21.9586 4.80127 22.4366 4.44283 22.96 4.49998L45.61 8.48899C46.1209 8.57847 46.4785 9.04364 46.4337 9.56031C46.389 10.077 45.9566 10.4737 45.438 10.474Z" fill="#3F5C6C"/>
<path d="M40.63 14.7C40.5713 14.7001 40.5127 14.6947 40.455 14.684L25.683 12.083C25.1515 11.9752 24.8028 11.4634 24.8969 10.9294C24.991 10.3953 25.4937 10.0336 26.03 10.114L40.803 12.714C41.3168 12.8008 41.6778 13.2677 41.6326 13.7868C41.5874 14.3059 41.1511 14.7033 40.63 14.7Z" fill="#3F5C6C"/>
<path d="M42.7178 19.1664L22.0328 15.5124C21.4888 15.4163 20.9699 15.7794 20.8738 16.3234L19.1338 26.1734C19.0377 26.7174 19.4008 27.2363 19.9448 27.3324L40.6298 30.9864C41.1738 31.0825 41.6927 30.7194 41.7888 30.1754L43.5288 20.3254C43.6249 19.7814 43.2618 19.2625 42.7178 19.1664Z" fill="#ECF0F1"/>
<path d="M57.99 12.78C57.9781 13.0886 57.9447 13.396 57.89 13.7L52.33 45.21L44.62 42.86L49.09 17.52L50.15 11.54L51.23 5.42L51.98 5.55C55.5057 6.12454 58.0694 9.20866 57.99 12.78Z" fill="#C03A2B"/>
<path d="M46.42 37.06L15.14 31.55C15.0244 31.5301 14.9073 31.52 14.79 31.52C13.7535 31.5226 12.8908 32.3166 12.8024 33.3493C12.7139 34.382 13.4291 35.3112 14.45 35.49L45.96 41.04C46.8459 41.2004 47.6136 41.7486 48.0529 42.5344C48.4923 43.3202 48.5572 44.2613 48.23 45.1C47.6674 46.4481 46.233 47.2134 44.8 46.93L13.41 41.4C13.2944 41.3801 13.1773 41.37 13.06 41.37C12.0216 41.3674 11.154 42.16 11.0628 43.1943C10.9716 44.2287 11.6872 45.1608 12.71 45.34L44.23 50.89C46.2153 51.238 48.2543 50.7143 49.8261 49.4526C51.3979 48.191 52.3503 46.3135 52.44 44.3C52.5185 40.7235 49.9508 37.6354 46.42 37.06Z" fill="#802F34"/>
<path d="M48.23 45.1C47.6674 46.4481 46.233 47.2134 44.8 46.93L13.41 41.4L14.45 35.49L45.96 41.04C46.8459 41.2004 47.6136 41.7486 48.0529 42.5344C48.4923 43.3202 48.5572 44.2613 48.23 45.1Z" fill="#F9EAB0"/>
</svg>
