<svg width="54" height="54" viewBox="0 0 54 54" fill="none" xmlns="http://www.w3.org/2000/svg">
<g clip-path="url(#clip0)">
<path d="M27 48.4535L13.4602 49.4027L0 48.4535V40.2401C0 34.4903 4.66119 29.8291 10.411 29.8291H16.5889C22.3387 29.8291 26.9999 34.4903 26.9999 40.2401L27.9491 44.2692L27 48.4535Z" fill="#DC4955"/>
<path d="M0.544852 50.4151H4.51575L5.33313 49.4659L6.15052 50.4151H20.8494L21.6668 49.4659L22.484 50.4151H27L27.9492 49.4344L27 48.4536H0V49.8703C0 50.1712 0.243949 50.4151 0.544852 50.4151Z" fill="#D82F3C"/>
<path d="M13.5 33.9689C17.0606 33.9689 16.9749 29.9869 16.9703 29.8363C16.8481 29.8321 16.7256 29.8291 16.6024 29.8291H10.4245C10.2923 29.8291 10.1607 29.8324 10.0297 29.8373C10.0247 30.0084 9.94907 33.9689 13.5 33.9689Z" fill="#E2AE84"/>
<path d="M6.15051 41.5269V48.4535L5.33313 49.4027L4.51575 48.4535V41.5269C4.51575 41.0757 4.88193 40.7096 5.33313 40.7096C5.78433 40.7095 6.15051 41.0757 6.15051 41.5269Z" fill="#C42D41"/>
<path d="M22.4839 41.5269V48.4535L21.6666 49.4027L20.8493 48.4535V41.5269C20.8493 41.0757 21.2154 40.7096 21.6666 40.7096C22.1178 40.7095 22.4839 41.0757 22.4839 41.5269Z" fill="#C42D41"/>
<path d="M4.51585 48.4535H6.15051V50.4151H4.51585V48.4535Z" fill="#B72D47"/>
<path d="M20.8493 48.4535H22.4839V50.4151H20.8493V48.4535Z" fill="#B72D47"/>
<path d="M2.33287 18.3778C-0.288976 12.4001 -0.783519 6.70203 5.05017 4.9426C18.4323 0.906736 19.1166 7.15302 19.1166 7.15302C19.1166 7.15302 28.5951 7.57247 25.0084 19.2798L2.33287 18.3778Z" fill="#26457D"/>
<path d="M4.75886 16.9968C3.72791 16.9968 2.82404 17.5515 2.33287 18.3777C2.5031 18.7621 2.73218 19.2616 2.91907 19.6479L5.05017 19.715V17.0118C4.9544 17.002 4.85716 16.9968 4.75886 16.9968Z" fill="#21386B"/>
<path d="M24.6609 20.3326C24.7884 19.9714 24.9037 19.6216 25.0084 19.2798C24.7585 17.9797 23.6144 16.9968 22.2413 16.9968C22.1429 16.9968 22.0457 17.002 21.95 17.0118V20.2472L24.6609 20.3326Z" fill="#21386B"/>
<path d="M4.45996 23.4448L5.05439 22.6165L5.83317 22.1174L5.05017 18.9735C4.9544 18.9637 4.85716 18.9585 4.75886 18.9585C3.54776 18.9585 2.51533 19.7227 2.11708 20.7952C2.11698 21.8637 3.24887 23.4448 4.45996 23.4448Z" fill="#E2AE84"/>
<path d="M4.75885 22.6319C3.54775 22.6319 2.51532 21.8677 2.11707 20.7952C2.00359 21.1006 1.94136 21.431 1.94136 21.7759C1.94136 23.332 3.20277 24.5934 4.75885 24.5934C4.95566 24.5934 5.14782 24.5731 5.33324 24.5347L5.83305 23.346L5.05427 22.6163C4.95724 22.6265 4.85863 22.6319 4.75885 22.6319Z" fill="#D7A379"/>
<path d="M22.54 23.4448L21.9456 22.6165L21.1668 22.1174L21.9498 18.9735C22.0456 18.9637 22.1428 18.9585 22.2411 18.9585C23.4522 18.9585 24.4847 19.7227 24.8829 20.7952C24.8829 21.8637 23.7511 23.4448 22.54 23.4448Z" fill="#E2AE84"/>
<path d="M22.2411 22.6319C23.4522 22.6319 24.4847 21.8677 24.8829 20.7952C24.9964 21.1006 25.0586 21.431 25.0586 21.7759C25.0586 23.332 23.7972 24.5934 22.2411 24.5934C22.0442 24.5934 21.8522 24.5731 21.6668 24.5347L21.1669 23.346L21.9457 22.6163C22.0428 22.6265 22.1414 22.6319 22.2411 22.6319Z" fill="#D7A379"/>
<path d="M13.5 29.7975C19.7157 29.7975 21.9498 25.0652 21.9498 20.3984V17.0629C21.9498 16.8669 21.8439 16.6873 21.6738 16.5901C19.6302 15.4217 18.181 12.7293 17.6005 11.4976C17.4523 11.1831 17.0491 11.0861 16.7752 11.3003C11.7824 15.2057 7.14392 15.5607 5.59522 15.558C5.2939 15.5575 5.05026 15.8015 5.05026 16.1028V20.3985C5.05016 25.0652 7.63952 29.7975 13.5 29.7975Z" fill="#F0C69E"/>
<path d="M13.5 28.8481C8.83332 28.8481 5.05016 25.0651 5.05016 20.3983V22.3599C5.05016 27.0267 8.83332 30.8098 13.5 30.8098C18.1667 30.8098 21.9498 27.0267 21.9498 22.3599V20.3983C21.9498 25.0651 18.1667 28.8481 13.5 28.8481Z" fill="#E6BA94"/>
<path d="M13.4599 25.3676C14.2739 26.929 16.0332 26.8462 16.8615 26.7073C17.1343 26.6616 17.3287 26.4155 17.3112 26.1395C17.2488 25.153 16.7415 22.9536 13.4602 22.9536C10.1789 22.9536 9.6717 25.153 9.60916 26.1395C9.59165 26.4155 9.78613 26.6616 10.0589 26.7073C10.8873 26.8462 12.6464 26.929 13.4605 25.3676H13.4599Z" fill="#26457D"/>
<path d="M53.6574 29.7798C53.0111 29.4236 51.7089 28.4177 52.0872 26.2217C54.8718 10.0593 47.8654 4.06946 40.5 4.06946C33.1347 4.06946 26.1282 10.0593 28.9128 26.2217C29.2911 28.4177 27.989 29.4236 27.3426 29.7798C27.1277 29.8981 27.0198 30.1435 27.0749 30.3825C27.1855 30.8629 27.4542 31.666 28.0932 32.4442C28.0933 32.444 28.0935 32.4437 28.0937 32.4435C28.0932 32.4442 52.9063 32.4435 52.9063 32.4435C52.9065 32.4437 52.9066 32.444 52.9068 32.4442C53.5459 31.666 53.8145 30.8629 53.9251 30.3825C53.9802 30.1437 53.8722 29.8982 53.6574 29.7798Z" fill="#26457D"/>
<path d="M44.7316 28.8483H36.2683C33.0328 28.8483 30.1212 30.2339 28.0936 32.4438C28.5268 32.9716 29.1292 33.488 29.9696 33.8847H51.0303C51.8707 33.4879 52.473 32.9716 52.9063 32.4438C50.8787 30.2339 47.9671 28.8483 44.7316 28.8483Z" fill="#21386B"/>
<path d="M54 48.4535L40.4865 49.4027L27 48.4535V40.2401C27 34.4903 31.6612 29.8291 37.411 29.8291H43.5889C49.3387 29.8291 53.9999 34.4903 53.9999 40.2401V48.4535H54Z" fill="#B3E59F"/>
<path d="M27 50.4151H31.516L32.3332 49.4659L33.1506 50.4151H47.8495L48.6669 49.4659L49.4841 50.4151H53.455C53.7559 50.4151 53.9999 50.1712 53.9999 49.8703V48.4536H27V50.4151Z" fill="#95D6A4"/>
<path d="M40.4865 33.9689C44.0471 33.9689 43.9614 29.9869 43.9568 29.8363C43.8346 29.8321 43.7122 29.8291 43.5889 29.8291H37.411C37.2788 29.8291 37.1473 29.8324 37.0162 29.8373C37.0113 30.0084 36.9357 33.9689 40.4865 33.9689Z" fill="#E2AE84"/>
<path d="M33.1507 41.5269V48.4535L32.3333 49.4027L31.5161 48.4535V41.5269C31.5161 41.0757 31.8823 40.7096 32.3333 40.7096C32.7845 40.7095 33.1507 41.0757 33.1507 41.5269Z" fill="#78C2A4"/>
<path d="M49.4841 41.5269V48.4535L48.6669 49.4027L47.8495 48.4535V41.5269C47.8495 41.0757 48.2157 40.7096 48.6669 40.7096C49.118 40.7095 49.4841 41.0757 49.4841 41.5269Z" fill="#78C2A4"/>
<path d="M31.5161 48.4535H33.1507V50.4151H31.5161V48.4535Z" fill="#66B394"/>
<path d="M47.8495 48.4535H49.4841V50.4151H47.8495V48.4535Z" fill="#66B394"/>
<path d="M40.5 29.7975C46.9766 29.7975 48.9498 25.0653 48.9498 20.3985V18.3394C48.9498 18.133 48.8326 17.9454 48.6481 17.8527C46.1292 16.5875 44.5415 13.8048 43.8639 12.3842C43.6887 12.0168 43.1887 11.9636 42.9406 12.2863C39.7465 16.4403 34.1037 17.7805 32.4915 18.0879C32.2349 18.1368 32.0502 18.3616 32.0502 18.6228V20.3986C32.0502 25.0653 33.9882 29.7975 40.5 29.7975Z" fill="#F0C69E"/>
<path d="M40.5 28.8481C35.8333 28.8481 32.0502 25.0651 32.0502 20.3983V22.3599C32.0502 27.0267 35.8333 30.8098 40.5 30.8098C45.1667 30.8098 48.9498 27.0267 48.9498 22.3599V20.3983C48.9498 25.0651 45.1667 28.8481 40.5 28.8481Z" fill="#E6BA94"/>
<path d="M9.35434 22.4627C9.80701 22.4627 10.174 22.0958 10.174 21.643V19.7432C10.174 19.2904 9.80701 18.9235 9.35434 18.9235C8.90167 18.9235 8.53464 19.2904 8.53464 19.7432V21.643C8.53464 22.0958 8.90167 22.4627 9.35434 22.4627Z" fill="#5E6B75"/>
<path d="M17.5671 22.4627C18.0198 22.4627 18.3868 22.0958 18.3868 21.643V19.7432C18.3868 19.2904 18.0198 18.9235 17.5671 18.9235C17.1144 18.9235 16.7474 19.2904 16.7474 19.7432V21.643C16.7474 22.0958 17.1144 22.4627 17.5671 22.4627Z" fill="#5E6B75"/>
<path d="M36.4328 18.9235C35.98 18.9235 35.6131 19.2904 35.6131 19.7432V21.643C35.6131 22.0958 35.98 22.4627 36.4328 22.4627C36.8856 22.4627 37.2525 22.0958 37.2525 21.643V19.7432C37.2525 19.2904 36.8856 18.9235 36.4328 18.9235Z" fill="#5E6B75"/>
<path d="M44.6456 22.4627C45.0983 22.4627 45.4653 22.0958 45.4653 21.643V19.7432C45.4653 19.2904 45.0983 18.9235 44.6456 18.9235C44.1928 18.9235 43.8259 19.2904 43.8259 19.7432V21.643C43.8259 22.0958 44.1928 22.4627 44.6456 22.4627Z" fill="#5E6B75"/>
<path d="M43.1303 25.3717C43.5906 24.3553 42.1302 23.6771 41.6452 24.6718C41.6199 24.723 41.3737 25.172 40.5391 25.172C39.7046 25.172 39.4584 24.723 39.4331 24.6718C38.948 23.6771 37.4878 24.3553 37.948 25.3717C38.2032 25.9312 39.0076 26.8145 40.5391 26.8145C42.0708 26.8144 42.8751 25.9311 43.1303 25.3717Z" fill="#DC4955"/>
</g>
<defs>
<clipPath id="clip0">
<rect width="54" height="54" fill="white"/>
</clipPath>
</defs>
</svg>
